<svg xmlns="http://www.w3.org/2000/svg" viewBox="0 0 64 64">
  <path fill="#f9ddaa" d="M44 2a17.94 17.94 0 00-13.11 5.7A24 24 0 0025 7C14.35 7 5.92 14.16 4 24.84l-2 12a1 1 0 00.23.81A1 1 0 003 38h5v13a1 1 0 001 1h15v9a1 1 0 001 1h19a1 1 0 001-1V38a18 18 0 00-1-36zM17 44h-7v-2h7a1 1 0 010 2zm-1-11.5c-2.76 0-5-1.79-5-4a1 1 0 012 0c0 1.08 1.37 2 3 2s3-.92 3-2a1 1 0 012 0c0 2.21-2.24 4-5 4zM44 36a16 16 0 1116-16 16 16 0 01-16 16z" />
  <path fill="#28c9b1" d="M44 8a12 12 0 1012 12A12 12 0 0044 8zm0 20a8 8 0 118-8 8 8 0 01-8 8z" />
  <path fill="#28c9b1" d="M44 14a6 6 0 106 6 6 6 0 00-6-6zm1 5.8a1 1 0 01-.23.63l-1 1.21a1 1 0 11-1.54-1.28l.77-.93V17a1 1 0 012 0z" />
</svg>